<svg width="26" height="24" viewBox="0 0 26 24" fill="none" xmlns="http://www.w3.org/2000/svg">
  <path d="M0.831549 8.94984C0.435655 9.22696 0.339375 9.77255 0.6165 10.1684C0.893625 10.5643 1.43921 10.6606 1.83511 10.3835L0.831549 8.94984ZM13 1.5L13.5018 0.783172C13.2005 0.572276 12.7995 0.572276 12.4982 0.783172L13 1.5ZM24.1649 10.3835C24.5608 10.6606 25.1064 10.5643 25.3835 10.1684C25.6606 9.77255 25.5643 9.22696 25.1684 8.94984L24.1649 10.3835ZM15.625 22.5C15.625 22.9833 16.0167 23.375 16.5 23.375C16.9832 23.375 17.375 22.9833 17.375 22.5H15.625ZM8.625 22.5C8.625 22.9833 9.01675 23.375 9.5 23.375C9.98324 23.375 10.375 22.9833 10.375 22.5H8.625ZM3.37499 9.66667V8.79167H1.62499V9.66667H3.37499ZM9.5 23.8332H10.375V22.0832H9.5V23.8332ZM24.375 9.66667V8.79167H22.625V9.66667H24.375ZM16.5 22.0832H15.625V23.8332H16.5V22.0832ZM1.83511 10.3835L13.5018 2.21683L12.4982 0.783172L0.831549 8.94984L1.83511 10.3835ZM12.4982 2.21683L24.1649 10.3835L25.1684 8.94984L13.5018 0.783172L12.4982 2.21683ZM17.375 22.5V15.5H15.625V22.5H17.375ZM17.375 15.5C17.375 13.7276 15.9391 12.2917 14.1667 12.2917V14.0417C14.9726 14.0417 15.625 14.6941 15.625 15.5H17.375ZM14.1667 12.2917H11.8333V14.0417H14.1667V12.2917ZM11.8333 12.2917C10.0609 12.2917 8.625 13.7276 8.625 15.5H10.375C10.375 14.6941 11.0274 14.0417 11.8333 14.0417V12.2917ZM8.625 15.5V22.5H10.375V15.5H8.625ZM1.62499 9.66667V20.6239H3.37499V9.66667H1.62499ZM1.62499 20.6239C1.62499 22.3963 3.06185 23.8332 4.8343 23.8332V22.0832C4.02835 22.0832 3.37499 21.4298 3.37499 20.6239H1.62499ZM4.8343 23.8332H9.5V22.0832H4.8343V23.8332ZM22.625 9.66667V20.6239H24.375V9.66667H22.625ZM22.625 20.6239C22.625 21.4298 21.9716 22.0832 21.1657 22.0832V23.8332C22.9381 23.8332 24.375 22.3963 24.375 20.6239H22.625ZM21.1657 22.0832H16.5V23.8332H21.1657V22.0832Z" fill="white" />
</svg>