<svg width="100%" height="100%" viewBox="0 0 14 14" fill="none" xmlns="http://www.w3.org/2000/svg">
  <path fill-rule="evenodd" clip-rule="evenodd" d="M3 11.3893C4.046 10.3726 5.46133 9.74731 7.01533 9.74731C8.554 9.74731 9.954 10.36 11 11.358C9.954 12.3746 8.53867 13 6.98467 13C5.446 13 4.046 12.3873 3 11.3893Z" stroke="" stroke-linecap="round" stroke-linejoin="round" />
  <path d="M1.65 9.68333C1.24333 8.874 1 7.968 1 7C1 3.684 3.684 1 7 1C10.316 1 13 3.684 13 7C13 7.96667 12.758 8.87333 12.3487 9.682" stroke="" stroke-linecap="round" stroke-linejoin="round" />
  <path d="M8.41421 4.25247C9.19526 5.03352 9.19526 6.29985 8.41421 7.0809C7.63316 7.86195 6.36683 7.86195 5.58579 7.0809C4.80474 6.29985 4.80474 5.03352 5.58579 4.25247C6.36683 3.47143 7.63316 3.47143 8.41421 4.25247" stroke="" stroke-linecap="round" stroke-linejoin="round" />
</svg>