<svg width="20" height="21" viewBox="0 0 20 21" fill="none" xmlns="http://www.w3.org/2000/svg">
  <path d="M14 1V5" stroke="#434B74" stroke-width="1.5" stroke-linecap="round" stroke-linejoin="round" />
  <path d="M6 1V5" stroke="#434B74" stroke-width="1.5" stroke-linecap="round" stroke-linejoin="round" />
  <path d="M1 8H19" stroke="#434B74" stroke-width="1.5" stroke-linecap="round" stroke-linejoin="round" />
  <path fill-rule="evenodd" clip-rule="evenodd" d="M17 3H3C1.895 3 1 3.895 1 5V18C1 19.105 1.895 20 3 20H17C18.105 20 19 19.105 19 18V5C19 3.895 18.105 3 17 3Z" stroke="#434B74" stroke-width="1.5" stroke-linecap="round" stroke-linejoin="round" />
  <path d="M5.01316 11.7285C4.87516 11.7285 4.76316 11.8405 4.76416 11.9785C4.76416 12.1165 4.87616 12.2285 5.01416 12.2285C5.15216 12.2285 5.26416 12.1165 5.26416 11.9785C5.26416 11.8405 5.15216 11.7285 5.01316 11.7285" stroke="#434B74" stroke-width="1.5" stroke-linecap="round" stroke-linejoin="round" />
  <path d="M10.0132 11.7285C9.87516 11.7285 9.76316 11.8405 9.76416 11.9785C9.76416 12.1165 9.87616 12.2285 10.0142 12.2285C10.1522 12.2285 10.2642 12.1165 10.2642 11.9785C10.2642 11.8405 10.1522 11.7285 10.0132 11.7285" stroke="#434B74" stroke-width="1.5" stroke-linecap="round" stroke-linejoin="round" />
  <path d="M15.0132 11.7285C14.8752 11.7285 14.7632 11.8405 14.7642 11.9785C14.7642 12.1165 14.8762 12.2285 15.0142 12.2285C15.1522 12.2285 15.2642 12.1165 15.2642 11.9785C15.2642 11.8405 15.1522 11.7285 15.0132 11.7285" stroke="#434B74" stroke-width="1.5" stroke-linecap="round" stroke-linejoin="round" />
  <path d="M5.01316 15.7285C4.87516 15.7285 4.76316 15.8405 4.76416 15.9785C4.76416 16.1165 4.87616 16.2285 5.01416 16.2285C5.15216 16.2285 5.26416 16.1165 5.26416 15.9785C5.26416 15.8405 5.15216 15.7285 5.01316 15.7285" stroke="#434B74" stroke-width="1.5" stroke-linecap="round" stroke-linejoin="round" />
  <path d="M10.0132 15.7285C9.87516 15.7285 9.76316 15.8405 9.76416 15.9785C9.76416 16.1165 9.87616 16.2285 10.0142 16.2285C10.1522 16.2285 10.2642 16.1165 10.2642 15.9785C10.2642 15.8405 10.1522 15.7285 10.0132 15.7285" stroke="#434B74" stroke-width="1.5" stroke-linecap="round" stroke-linejoin="round" />
</svg>