<svg width="100%" height="100%" viewBox="0 0 24 24" fill="none" xmlns="http://www.w3.org/2000/svg">
  <path d="M12 9.99999V4.86392" stroke="" stroke-width="1.5" stroke-linecap="round" stroke-linejoin="round" />
  <path d="M7.99995 15.1729C6.79296 15.0648 5.58041 15.3074 4.50795 15.8716C4.19869 16.0502 3.81793 16.0513 3.50764 15.8746C3.19734 15.6978 3.0041 15.3697 2.99995 15.0126V5.79393C2.99444 5.15562 3.29669 4.55372 3.81195 4.17693C6.34333 2.37748 9.80381 2.66783 12 4.86393C14.1961 2.66783 17.6566 2.37748 20.188 4.17693C20.7032 4.55372 21.0055 5.15562 21 5.79393V9.99993" stroke="" stroke-width="1.5" stroke-linecap="round" stroke-linejoin="round" />
  <path d="M12 14.25V20.5C12 20.7761 12.2239 21 12.5 21H20.5C20.7761 21 21 20.7761 21 20.5V14.25" stroke="" stroke-width="1.5" stroke-linecap="round" stroke-linejoin="round" />
  <path d="M17.95 21V17.5C17.95 17.2239 17.7261 17 17.45 17H15.45C15.1738 17 14.95 17.2239 14.95 17.5V21" stroke="" stroke-width="1.5" stroke-linecap="round" stroke-linejoin="round" />
  <path d="M22 15L16.8 11.1C16.6222 10.9667 16.3778 10.9667 16.2 11.1L11 15" stroke="" stroke-width="1.5" stroke-linecap="round" stroke-linejoin="round" />
</svg>